<?xml version="1.0" encoding="UTF-8"?>
<svg data-bbox="-6.31 376.24 3161.78 823.07" viewBox="0 0 3175 1587.5" height="60" width="120" xmlns="http://www.w3.org/2000/svg" shape-rendering="geometricPrecision" text-rendering="geometricPrecision" image-rendering="optimizeQuality" fill-rule="evenodd" clip-rule="evenodd" data-type="ugc">
    <g>
        <path d="M229.2 535.69c-39.36 0-71.51 14.12-96.45 42.37-24.94 28.24-37.4 62.87-37.4 103.88s14.12 75.79 42.36 104.34c28.24 28.55 62.65 42.82 103.21 42.82 34.86 0 63.85-4.81 86.99-14.43v-132.5h21.63v142.42c-26.14 16.22-62.72 24.34-109.74 24.34-47.03 0-86.76-16.15-119.21-48.45-32.46-32.3-48.68-71.81-48.68-118.54 0-46.72 14.72-86.08 44.16-118.08 29.45-32 67.16-48 113.13-48 36.06 0 72.57 6.01 109.52 18.03l-5.86 18.03c-36.05-10.82-70.6-16.23-103.66-16.23zm353.08 196.06l-46.42 111.77h-22.99l135.67-324.51h12.62l136.11 324.51h-24.34l-46.42-111.77H582.28zm71.21-176.68c-.3.3-.9 2.1-1.8 5.41-4.21 12.92-8.26 23.89-12.17 32.9l-49.57 119.88h128.9l-49.58-119.43c-10.52-22.83-15.78-35.75-15.78-38.76zm335.05 17.58l.9 38.31v232.56h-21.63V518.56h9.91l212.29 244.74c14.42 17.12 25.53 30.79 33.35 41.01-1.2-14.42-1.81-30.95-1.81-49.58V521.27h21.64v324.96h-9.91l-216.34-249.25c-15.03-17.12-24.64-28.54-28.85-34.25l.45 9.92zm629.81 276.28c-46.87 0-87.14-16-120.79-48-33.65-32-50.48-71.51-50.48-118.54 0-47.02 14.73-86.53 44.17-118.53 29.45-32 67.16-48 113.13-48 36.05 0 72.56 6.01 109.52 18.03l-5.86 18.03c-36.06-10.82-70.61-16.23-103.66-16.23-39.36 0-71.51 14.12-96.45 42.37-24.94 28.24-37.41 62.8-37.41 103.66s14.5 75.64 43.5 104.34c28.99 28.69 63.77 43.04 104.33 43.04 35.46 0 66.11-5.41 91.94-16.22l6.77 15.32c-11.42 6.6-26.37 11.71-44.85 15.32-18.48 3.61-36.43 5.41-53.86 5.41zm530.21-5.41V682.17h-221.3v161.35h-21.63V521.27h21.63v141.52h221.3V521.27h21.63v322.25h-21.63zm461.7-31.32c-20.73 24.49-52.29 36.73-94.65 36.73-42.36 0-73.99-12.32-94.88-36.96-20.87-24.64-31.32-58.29-31.32-100.96V521.27h21.63v189.74c0 79.33 34.79 118.99 104.35 118.99 69.55 0 104.33-39.66 104.33-118.99V521.27h21.64v189.74c0 42.97-10.37 76.7-31.1 101.19zm444.11-290.93l-137.01 155.94c18.33 21.93 39.44 46.42 63.33 73.46 23.88 27.05 39.36 43.72 46.42 50.04 7.06 6.3 12.61 11.03 16.67 14.19 4.06 3.15 10.29 6.61 18.7 10.37 8.42 3.75 17.44 6.23 27.05 7.43l-.45 14.43c-18.03-.31-32.9-3.08-44.62-8.34-11.72-5.26-21.93-12.17-30.65-20.74-8.71-8.56-27.72-29.59-57.01-63.09-29.3-33.5-51.31-59.12-66.03-76.85l138.36-156.84h25.24zm-172.17 0v322.25h-21.63V521.27h21.63z" fill="#2b2a29" fill-rule="nonzero" stroke="#2b2a29" stroke-width="31.46" stroke-miterlimit="22.926"/>
        <path d="M549.48 1152.99v-125.88h8.45v125.88h-8.45zm116.19 0v-114.96h3.88l74.99 86.26c2.7 3.05 5.19 6.08 7.48 9.07s3.49 4.54 3.61 4.66c-.23-2.82-.35-8.33-.35-16.55v-82.74h8.09v114.96h-3.87l-76.4-87.67-9.68-11.79c.24 2.34.35 7.86.35 16.54v82.22h-8.1zm223.76-107.04H850.7v-7.22h85.38v7.22h-38.73v107.04h-7.92v-107.04zm133.97 107.04v-114.26h53.34v7.04h-45.24v41.55h40.84v6.87h-40.84v51.4h47v7.4h-55.1zm150.88 0v-113.73c10.09-.82 18.66-1.23 25.7-1.23 10.8 0 19.72 2.79 26.76 8.36 7.04 5.58 10.56 13.52 10.56 23.86 0 6.92-1.99 13.32-5.98 19.18-3.99 5.87-8.51 10.62-13.56 14.26 13.97 18.55 22.59 29.64 25.88 33.28 6.69 6.92 13.97 10.85 21.83 11.79l-.18 5.46c-6.57-.12-11.91-1.09-16.02-2.91-4.1-1.82-8.18-4.89-12.23-9.24-4.05-4.34-12.94-16.02-26.67-35.03-9.51 0-18.84-.3-27.99-.88v46.83h-8.1zm31.69-52.64c4.58 0 9.5-3.05 14.78-9.16 5.28-6.1 7.93-13.2 7.93-21.3 0-8.09-2.76-14.25-8.28-18.48-5.51-4.23-12.67-6.34-21.48-6.34-4.69 0-10.21.23-16.54.7v53.7c8.45.58 16.31.88 23.59.88zm140.84 52.64v-125.88h8.45v125.88h-8.45zm166.72 1.76c-16.32 0-29.99-5.7-41.02-17.08-11.04-11.38-16.55-25.32-16.55-41.81 0-16.49 5.51-30.43 16.55-41.81 11.03-11.38 24.7-17.08 41.02-17.08 16.31 0 29.98 5.7 41.01 17.08 11.04 11.38 16.55 25.32 16.55 41.81 0 16.49-5.51 30.43-16.55 41.81-11.03 11.38-24.7 17.08-41.01 17.08zm.08-110.56c-14.14 0-25.88 4.99-35.21 14.96-9.33 9.98-13.99 22.22-13.99 36.71 0 14.5 4.66 26.7 13.99 36.62 9.33 9.92 21.07 14.88 35.21 14.88s25.85-4.96 35.12-14.88c9.27-9.92 13.91-22.12 13.91-36.62 0-14.49-4.64-26.73-13.91-36.71-9.27-9.97-20.98-14.96-35.12-14.96zm156.07 108.8v-113.73c10.09-.82 18.66-1.23 25.7-1.23 10.8 0 19.72 2.79 26.76 8.36 7.04 5.58 10.56 13.52 10.56 23.86 0 6.92-1.99 13.32-5.98 19.18-3.99 5.87-8.51 10.62-13.56 14.26 13.97 18.55 22.59 29.64 25.88 33.28 6.69 6.92 13.97 10.85 21.83 11.79l-.18 5.46c-6.57-.12-11.91-1.09-16.02-2.91-4.1-1.82-8.18-4.89-12.23-9.24-4.05-4.34-12.94-16.02-26.67-35.03-9.51 0-18.84-.3-28-.88v46.83h-8.09zm31.68-52.64c4.59 0 9.51-3.05 14.79-9.16 5.28-6.1 7.92-13.2 7.92-21.3 0-8.09-2.75-14.25-8.27-18.48-5.51-4.23-12.67-6.34-21.48-6.34-4.69 0-10.21.23-16.55.7v53.7c8.45.58 16.32.88 23.59.88zm238.72 46.65c15.03 0 27.09-4.05 36.19-12.15 9.09-8.1 13.64-20.3 13.64-36.61s-5.14-29.28-15.41-38.91c-10.26-9.62-22.91-14.44-37.93-14.44-10.68 0-18.9.24-24.65.71v100.17c7.04.82 16.43 1.23 28.16 1.23zm-3.51-109.32c17.6 0 32.3 5.43 44.1 16.28 11.79 10.86 17.69 25.62 17.69 44.28s-5.43 32.69-16.29 42.07c-10.85 9.39-24.84 14.09-41.99 14.09-11.84 0-24.05-.59-36.61-1.77v-113.9c9.39-.7 20.42-1.05 33.1-1.05zm160.38 115.31v-114.26h53.34v7.04h-45.25v41.55h40.85v6.87h-40.85v51.4h47.01v7.4h-55.1zm173.93-109.33c-6.33 0-11.5 1.53-15.49 4.58s-5.98 7.33-5.98 12.85c0 6.34 2.64 12.03 7.92 17.08 3.76 3.64 8.59 7.48 14.52 11.53 5.93 4.05 10.01 6.95 12.24 8.71 2.23 1.76 4.93 4.17 8.09 7.22 5.76 5.75 8.63 12.38 8.63 19.9 0 9.74-3.25 17.1-9.77 22.09-6.51 4.98-15.61 7.48-27.29 7.48-11.67 0-21.44-3.05-29.31-9.15l4.23-6.16c7.98 5.39 16.43 8.09 25.35 8.09 8.92 0 15.87-1.88 20.86-5.63s7.48-9.04 7.48-15.85c0-5.86-2.52-11.26-7.57-16.19-3.52-3.52-8.24-7.34-14.17-11.45-5.93-4.1-10.06-7.07-12.41-8.89-2.35-1.82-5.1-4.25-8.27-7.3-5.99-5.99-8.98-12.91-8.98-20.77 0-7.87 2.78-14.03 8.36-18.49 5.57-4.46 13.29-6.69 23.15-6.69s18.72 1.94 26.59 5.81l-3 6.52c-7.27-3.53-15.67-5.29-25.18-5.29zm127.82 109.33v-125.88h8.45v125.88h-8.45zm163.9-108.8c-13.03 0-23.98 4.96-32.84 14.87-8.86 9.92-13.29 22.1-13.29 36.53 0 14.44 4.99 26.68 14.97 36.71 9.97 10.03 21.74 15.06 35.29 15.06 13.56 0 24.1-1.59 31.6-4.76v-47.01h8.1v50.71c-9.15 5.63-22.12 8.45-38.9 8.45-16.79 0-30.93-5.7-42.43-17.08-11.5-11.38-17.25-25.38-17.25-41.99 0-16.61 5.19-30.54 15.58-41.81 10.39-11.27 23.8-16.9 40.23-16.9 13.25 0 26.22 2.06 38.9 6.16l-2.11 6.69c-12.21-3.75-24.83-5.63-37.85-5.63zm145.59 108.8v-114.96h3.88l74.99 86.26c2.7 3.05 5.19 6.08 7.48 9.07s3.49 4.54 3.61 4.66c-.24-2.82-.35-8.33-.35-16.55v-82.74h8.09v114.96h-3.87l-76.4-87.67-9.68-11.79c.23 2.34.35 7.86.35 16.54v82.22h-8.1z" fill="#2b2a29" fill-rule="nonzero"/>
        <path fill="none" d="M3155.47 376.24v823.07H-6.31V376.24h3161.78z"/>
    </g>
</svg>
