<?xml version="1.0" encoding="UTF-8"?>
<svg data-bbox="243.21 89.16 2498.67 3118.84" viewBox="0 0 3307.28 3307.28" height="125" width="125" xmlns="http://www.w3.org/2000/svg" shape-rendering="geometricPrecision" text-rendering="geometricPrecision" image-rendering="optimizeQuality" fill-rule="evenodd" clip-rule="evenodd" data-type="ugc">
    <g>
        <path d="M1716.24 274.86c-368.6 0-669.69 132.26-903.23 396.77-233.56 264.48-350.33 588.79-350.33 972.86 0 384.09 132.26 709.78 396.76 977.11 253.96 256.66 561.11 390.13 921.46 400.33l1.21 186.07c-425.83-7.48-786.88-158.65-1083.07-453.46-303.87-302.47-455.83-672.5-455.83-1110.05 0-437.53 137.87-806.16 413.64-1105.83C932.6 239 1285.73 89.16 1716.24 89.16c337.66 0 679.54 56.28 1025.64 168.83L2687 426.82c-337.66-101.3-661.25-151.96-970.76-151.96z" fill="#898989" fill-rule="nonzero" stroke="#898989" stroke-width="16.68" stroke-miterlimit="22.926"/>
    </g>
</svg>
